<?xml version="1.0" encoding="utf-8"?>
<!-- Generator: Adobe Illustrator 28.3.0, SVG Export Plug-In . SVG Version: 6.00 Build 0)  -->
<svg version="1.1" id="Vrstva_1" xmlns="http://www.w3.org/2000/svg" xmlns:xlink="http://www.w3.org/1999/xlink" x="0px" y="0px"
	 viewBox="0 0 283.46 78.2" style="enable-background:new 0 0 283.46 78.2;" xml:space="preserve">
<style type="text/css">
	.st0{fill:#00534F;}
	.st1{fill:#0096AE;}
	.st2{fill:#95C11F;}
	.st3{fill:#C8D400;}
</style>
<g>
	<g>
		<path class="st0" d="M90.42,29.87v27.78h-8.6V29.87h-9.84v-6.23h28.29v6.23H90.42z"/>
		<path class="st0" d="M116.74,58.43c-8.1,0-15.01-2.84-15.01-15.79v-4.03c0-13.64,7.78-15.7,15.19-15.7c5.04,0,10.3,0.82,11.9,1.24
			v5.81c-2.38-0.13-7.55-0.41-10.3-0.41c-5.31,0-8.33,1.1-8.33,9.06v4.03c0,7.28,2.19,9.15,6.91,9.15c1.37,0,2.79,0,3.89-0.09V39.3
			h7.97v18.04C126.57,57.79,121.81,58.43,116.74,58.43z"/>
		<path class="st0" d="M160.39,57.65v-1.33c-1.78,1.1-4.26,2.01-7.37,2.01c-6.22,0-9.88-3.79-9.88-11.99v-3.21
			c0-9.15,4.53-12.27,11.85-12.27c1.88,0,3.34,0.18,4.8,0.41v-9.29h7.96v35.66H160.39z M159.89,37.24
			c-1.41-0.23-2.93-0.37-3.93-0.37c-3.25,0-4.85,0.96-4.85,6.27v3.21c0,4.39,1.14,5.95,4.49,5.95c1.51,0,2.97-0.37,4.3-0.92V37.24z"
			/>
		<path class="st0" d="M182,38.75v18.9h-7.97V31.56h7.42v2.15c2.56-2.34,5.77-2.84,8.61-2.84v6.68
			C187.17,37.56,184.06,38.06,182,38.75z"/>
		<path class="st0" d="M193.99,27.99v-6h8.29v6H193.99z M194.13,57.65V31.56h7.96v26.09H194.13z"/>
		<path class="st0" d="M225.25,57.65H213.9l-7.69-26.09h8.19l3.62,14.19c0.59,2.43,1.1,4.94,1.6,7.05c0.46-2.11,0.96-4.62,1.56-7.05
			l3.57-14.19h8.19L225.25,57.65z"/>
		<path class="st0" d="M242.5,46.76v0.36c0,3.44,0.46,5.31,6.09,5.31c2.65,0,5.4-0.18,9.79-0.5v5.26c-2.01,0.5-5.67,1.14-10.16,1.14
			c-9.57,0-13.59-3.34-13.59-12.9v-1.42c0-9.11,4.35-13.13,12.58-13.13c9.79,0,12.45,6.23,12.45,13.73v2.15H242.5z M251.84,42.04
			c0-2.89-0.6-5.49-4.67-5.49c-3.93,0-4.62,2.66-4.62,5.49v0.36h9.29V42.04z"/>
		<path class="st0" d="M271.93,58.29c-3.66,0-7.87-0.59-9.34-1.01v-4.85c1.14,0.04,5.36,0.5,8.93,0.5c3.21,0,4.26-0.73,4.26-2.33
			c0-1.56-0.82-1.88-4.12-3.11l-2.11-0.78c-4.85-1.88-7.37-4.12-7.37-8.42c0-5.72,4.07-7.41,10.76-7.41c3.84,0,7.6,0.55,9.24,1.05
			v4.99c-3.11-0.27-5.77-0.46-8.52-0.46c-2.56,0-3.84,0.09-3.84,1.65c0,1.37,0.83,1.69,3.57,2.75l2.29,0.82
			c5.82,2.11,7.78,4.21,7.78,8.33C283.46,55.59,279.8,58.29,271.93,58.29z"/>
	</g>
</g>
<rect x="3.82" y="3.82" transform="matrix(0.7071 -0.7071 0.7071 0.7071 -5.3988 13.0354)" class="st1" width="18.43" height="18.43"/>
<rect x="29.89" y="29.89" transform="matrix(0.7071 -0.7071 0.7071 0.7071 -16.1966 39.101)" class="st2" width="18.43" height="18.43"/>
<polygon class="st0" points="26.07,39.1 39.1,26.07 26.07,13.03 0,39.1 26.07,65.17 39.1,52.14 "/>
<rect x="3.82" y="55.95" transform="matrix(0.7071 -0.7072 0.7072 0.7071 -42.268 28.3094)" class="st3" width="18.43" height="18.43"/>
</svg>
