<?xml version="1.0" encoding="UTF-8" standalone="no"?>
<!-- Created with Inkscape (http://www.inkscape.org/) -->

<svg
   width="420mm"
   height="297mm"
   viewBox="0 0 420 297"
   version="1.1"
   id="svg1"
   inkscape:version="1.3.2 (091e20e, 2023-11-25, custom)"
   sodipodi:docname="TGZstructure1.svg"
   xmlns:inkscape="http://www.inkscape.org/namespaces/inkscape"
   xmlns:sodipodi="http://sodipodi.sourceforge.net/DTD/sodipodi-0.dtd"
   xmlns="http://www.w3.org/2000/svg"
   xmlns:svg="http://www.w3.org/2000/svg">
  <sodipodi:namedview
     id="namedview1"
     pagecolor="#ffffff"
     bordercolor="#eeeeee"
     borderopacity="1"
     inkscape:showpageshadow="false"
     inkscape:pageopacity="0"
     inkscape:pagecheckerboard="false"
     inkscape:deskcolor="#505050"
     inkscape:document-units="mm"
     inkscape:zoom="1.4805976"
     inkscape:cx="560.58446"
     inkscape:cy="285.35775"
     inkscape:window-width="1920"
     inkscape:window-height="1027"
     inkscape:window-x="1912"
     inkscape:window-y="-8"
     inkscape:window-maximized="1"
     inkscape:current-layer="layer7" />
  <defs
     id="defs1" />
  <g
     inkscape:label="background"
     inkscape:groupmode="layer"
     id="layer1"
     style="display:inline;opacity:1" />
  <g
     inkscape:groupmode="layer"
     id="layer2"
     inkscape:label="blocks">
    <rect
       style="fill:#e3e3e3;fill-opacity:1;stroke:#000000;stroke-width:0.424702;stroke-dasharray:none;stroke-dashoffset:4.39999;stroke-opacity:1;paint-order:normal"
       id="rect1"
       width="34.999245"
       height="14.215965"
       x="6.5084419"
       y="6.5452709"
       inkscape:label="PG" />
    <rect
       style="fill:#e3e3e3;fill-opacity:1;stroke:#000000;stroke-width:0.424702;stroke-dasharray:none;stroke-dashoffset:4.39999;stroke-opacity:1;paint-order:normal"
       id="rect1-1"
       width="34.999245"
       height="14.215965"
       x="66.245415"
       y="7.4297924"
       inkscape:label="P" />
    <rect
       style="fill:#e3e3e3;fill-opacity:1;stroke:#000000;stroke-width:0.424702;stroke-dasharray:none;stroke-dashoffset:4.39999;stroke-opacity:1;paint-order:normal"
       id="rect9"
       width="34.999245"
       height="14.215965"
       x="146.07558"
       y="7.4297924"
       inkscape:label="V" />
    <rect
       style="fill:#e3e3e3;fill-opacity:1;stroke:#000000;stroke-width:0.424702;stroke-dasharray:none;stroke-dashoffset:4.39999;stroke-opacity:1;paint-order:normal"
       id="rect14"
       width="34.999245"
       height="14.215965"
       x="230.79886"
       y="7.4297924"
       inkscape:label="C" />
    <rect
       style="fill:#e3e3e3;fill-opacity:1;stroke:#000000;stroke-width:0.425;stroke-dasharray:none;stroke-dashoffset:4.39999;stroke-opacity:1;paint-order:normal"
       id="rect19"
       width="19.687836"
       height="11.236833"
       x="16.805704"
       y="55.786842"
       inkscape:label="FIELDBUS" />
    <rect
       style="fill:#e3e3e3;fill-opacity:1;stroke:#000000;stroke-width:0.424702;stroke-dasharray:none;stroke-dashoffset:4.39999;stroke-opacity:1;paint-order:normal"
       id="rect25"
       width="34.999245"
       height="14.215965"
       x="79.73645"
       y="54.297276"
       inkscape:label="SFF" />
    <rect
       style="fill:#e3e3e3;fill-opacity:1;stroke:#000000;stroke-width:0.424702;stroke-dasharray:none;stroke-dashoffset:4.39999;stroke-opacity:1;paint-order:normal"
       id="rect31"
       width="34.999245"
       height="14.215965"
       x="144.42598"
       y="54.297276"
       inkscape:label="currentSet" />
    <rect
       style="fill:#e3e3e3;fill-opacity:1;stroke:#000000;stroke-width:0.425;stroke-dasharray:none;stroke-dashoffset:4.39999;stroke-opacity:1;paint-order:normal"
       id="rect116"
       width="19.687836"
       height="11.236833"
       x="186.02553"
       y="87.416817"
       inkscape:label="SPEED" />
  </g>
  <g
     inkscape:groupmode="layer"
     id="layer3"
     inkscape:label="lines"
     inkscape:highlight-color="#ebc948" />
  <g
     inkscape:groupmode="layer"
     id="layer5"
     inkscape:label="texts"
     inkscape:highlight-color="#48eb4a">
    <g
       inkscape:groupmode="layer"
       id="layer6"
       inkscape:label="abbrevs">
      <text
         xml:space="preserve"
         style="font-style:normal;font-variant:normal;font-weight:normal;font-stretch:normal;font-size:5.64444px;font-family:'Titillium Web';-inkscape-font-specification:'Titillium Web';fill:#e3e3e3;stroke:#000000;stroke-width:0.16875;stroke-dasharray:none;stroke-dashoffset:16.6299"
         x="33.587315"
         y="12.146513"
         id="text3"
         inkscape:label="PG"><tspan
           sodipodi:role="line"
           id="tspan3"
           style="font-size:5.64444px;stroke-width:0.16875"
           x="33.587315"
           y="12.146513">PG</tspan></text>
      <text
         xml:space="preserve"
         style="font-style:normal;font-variant:normal;font-weight:normal;font-stretch:normal;font-size:5.35781px;font-family:'Titillium Web';-inkscape-font-specification:'Titillium Web';fill:#e3e3e3;stroke:#000000;stroke-width:0.16875;stroke-dasharray:none;stroke-dashoffset:16.6299"
         x="93.32428"
         y="13.031034"
         id="text3-2"
         inkscape:label="P"><tspan
           sodipodi:role="line"
           id="tspan3-1"
           style="font-size:5.64444px;stroke-width:0.16875"
           x="93.32428"
           y="13.031034">P</tspan><tspan
           sodipodi:role="line"
           style="font-size:5.35781px;stroke-width:0.16875"
           x="93.32428"
           y="19.837244"
           id="tspan6" /></text>
      <text
         xml:space="preserve"
         style="font-style:normal;font-variant:normal;font-weight:normal;font-stretch:normal;font-size:5.35781px;font-family:'Titillium Web';-inkscape-font-specification:'Titillium Web';fill:#e3e3e3;stroke:#000000;stroke-width:0.16875;stroke-dasharray:none;stroke-dashoffset:16.6299"
         x="176.56616"
         y="12.200091"
         id="text10"
         inkscape:label="V"><tspan
           sodipodi:role="line"
           id="tspan9"
           style="font-size:5.64444px;stroke-width:0.16875"
           x="176.56616"
           y="12.200091">V</tspan><tspan
           sodipodi:role="line"
           style="font-size:5.35781px;stroke-width:0.16875"
           x="176.56616"
           y="19.0063"
           id="tspan10" /></text>
      <text
         xml:space="preserve"
         style="font-style:normal;font-variant:normal;font-weight:normal;font-stretch:normal;font-size:5.35781px;font-family:'Titillium Web';-inkscape-font-specification:'Titillium Web';fill:#e3e3e3;stroke:#000000;stroke-width:0.16875;stroke-dasharray:none;stroke-dashoffset:16.6299"
         x="261.28946"
         y="12.20009"
         id="text16"
         inkscape:label="V"><tspan
           sodipodi:role="line"
           id="tspan15"
           style="font-size:5.64444px;stroke-width:0.16875"
           x="261.28946"
           y="12.20009">C</tspan><tspan
           sodipodi:role="line"
           style="font-size:5.35781px;stroke-width:0.16875"
           x="261.28946"
           y="19.0063"
           id="tspan16" /></text>
    </g>
    <g
       inkscape:groupmode="layer"
       id="layer7"
       inkscape:label="headlines">
      <text
         xml:space="preserve"
         style="font-style:normal;font-variant:normal;font-weight:normal;font-stretch:normal;font-size:3.57187px;font-family:'Titillium Web';-inkscape-font-specification:'Titillium Web';fill:#e3e3e3;stroke:#000000;stroke-width:0.16875;stroke-dasharray:none;stroke-dashoffset:16.6299"
         x="66.963898"
         y="11.777308"
         id="text1-3"
         inkscape:label="position controller"><tspan
           sodipodi:role="line"
           style="font-style:normal;font-variant:normal;font-weight:normal;font-stretch:normal;font-size:3.57187px;font-family:'Titillium Web';-inkscape-font-specification:'Titillium Web';stroke-width:0.16875;stroke-dasharray:none"
           x="66.963898"
           y="11.777308"
           id="tspan2-1">POSITION</tspan><tspan
           sodipodi:role="line"
           style="font-style:normal;font-variant:normal;font-weight:normal;font-stretch:normal;font-size:3.57187px;font-family:'Titillium Web';-inkscape-font-specification:'Titillium Web';stroke-width:0.16875;stroke-dasharray:none"
           x="66.963898"
           y="16.242146"
           id="tspan5">CONTROLLER</tspan></text>
      <text
         xml:space="preserve"
         style="font-style:normal;font-variant:normal;font-weight:normal;font-stretch:normal;font-size:3.57187px;font-family:'Titillium Web';-inkscape-font-specification:'Titillium Web';fill:#e3e3e3;stroke:#000000;stroke-width:0.16875;stroke-dasharray:none;stroke-dashoffset:16.6299"
         x="7.2269211"
         y="10.892786"
         id="text1"
         inkscape:label="profile generator"><tspan
           sodipodi:role="line"
           id="tspan1"
           style="font-style:normal;font-variant:normal;font-weight:normal;font-stretch:normal;font-size:3.57187px;font-family:'Titillium Web';-inkscape-font-specification:'Titillium Web';stroke-width:0.16875;stroke-dasharray:none"
           x="7.2269211"
           y="10.892786">PROFILE</tspan><tspan
           sodipodi:role="line"
           style="font-style:normal;font-variant:normal;font-weight:normal;font-stretch:normal;font-size:3.57187px;font-family:'Titillium Web';-inkscape-font-specification:'Titillium Web';stroke-width:0.16875;stroke-dasharray:none"
           x="7.2269211"
           y="15.357624"
           id="tspan2">GENERATOR</tspan></text>
      <text
         xml:space="preserve"
         style="font-style:normal;font-variant:normal;font-weight:normal;font-stretch:normal;font-size:3.57187px;font-family:'Titillium Web';-inkscape-font-specification:'Titillium Web';fill:#e3e3e3;stroke:#000000;stroke-width:0.16875;stroke-dasharray:none;stroke-dashoffset:16.6299"
         x="146.79405"
         y="11.777308"
         id="text12"
         inkscape:label="velocity controller"><tspan
           sodipodi:role="line"
           style="font-style:normal;font-variant:normal;font-weight:normal;font-stretch:normal;font-size:3.57187px;font-family:'Titillium Web';-inkscape-font-specification:'Titillium Web';stroke-width:0.16875;stroke-dasharray:none"
           x="146.79405"
           y="11.777308"
           id="tspan12">VELOCITY (SPEED)</tspan><tspan
           sodipodi:role="line"
           style="font-style:normal;font-variant:normal;font-weight:normal;font-stretch:normal;font-size:3.57187px;font-family:'Titillium Web';-inkscape-font-specification:'Titillium Web';stroke-width:0.16875;stroke-dasharray:none"
           x="146.79405"
           y="16.242146"
           id="tspan14">CONTROLLER</tspan></text>
      <text
         xml:space="preserve"
         style="font-style:normal;font-variant:normal;font-weight:normal;font-stretch:normal;font-size:3.57187px;font-family:'Titillium Web';-inkscape-font-specification:'Titillium Web';fill:#e3e3e3;stroke:#000000;stroke-width:0.16875;stroke-dasharray:none;stroke-dashoffset:16.6299"
         x="231.51733"
         y="11.777308"
         id="text18"
         inkscape:label="current controller"><tspan
           sodipodi:role="line"
           style="font-style:normal;font-variant:normal;font-weight:normal;font-stretch:normal;font-size:3.57187px;font-family:'Titillium Web';-inkscape-font-specification:'Titillium Web';stroke-width:0.16875;stroke-dasharray:none"
           x="231.51733"
           y="11.777308"
           id="tspan17">CURRENT</tspan><tspan
           sodipodi:role="line"
           style="font-style:normal;font-variant:normal;font-weight:normal;font-stretch:normal;font-size:3.57187px;font-family:'Titillium Web';-inkscape-font-specification:'Titillium Web';stroke-width:0.16875;stroke-dasharray:none"
           x="231.51733"
           y="16.242146"
           id="tspan18">CONTROLLER</tspan></text>
      <text
         xml:space="preserve"
         style="font-style:normal;font-variant:normal;font-weight:normal;font-stretch:normal;font-size:3.57187px;font-family:'Titillium Web';-inkscape-font-specification:'Titillium Web';fill:#e3e3e3;stroke:#000000;stroke-width:0.16875;stroke-dasharray:none;stroke-dashoffset:16.6299"
         x="17.594933"
         y="60.205109"
         id="text23"
         inkscape:label="Fieldbus"><tspan
           sodipodi:role="line"
           style="font-style:normal;font-variant:normal;font-weight:normal;font-stretch:normal;font-size:3.57187px;font-family:'Titillium Web';-inkscape-font-specification:'Titillium Web';stroke-width:0.16875;stroke-dasharray:none"
           x="17.594933"
           y="60.205109"
           id="tspan23">FIELDBUS</tspan><tspan
           sodipodi:role="line"
           style="font-style:normal;font-variant:normal;font-weight:normal;font-stretch:normal;font-size:3.57187px;font-family:'Titillium Web';-inkscape-font-specification:'Titillium Web';stroke-width:0.16875;stroke-dasharray:none"
           x="17.594933"
           y="64.669945"
           id="tspan25">(ETHERCAT)</tspan></text>
      <text
         xml:space="preserve"
         style="font-style:normal;font-variant:normal;font-weight:normal;font-stretch:normal;font-size:3.57187px;font-family:'Titillium Web';-inkscape-font-specification:'Titillium Web';fill:#e3e3e3;stroke:#000000;stroke-width:0.16875;stroke-dasharray:none;stroke-dashoffset:16.6299"
         x="80.454926"
         y="58.644791"
         id="text29"
         inkscape:label="SFF"><tspan
           sodipodi:role="line"
           style="font-style:normal;font-variant:normal;font-weight:normal;font-stretch:normal;font-size:3.57187px;font-family:'Titillium Web';-inkscape-font-specification:'Titillium Web';stroke-width:0.16875;stroke-dasharray:none"
           x="80.454926"
           y="58.644791"
           id="tspan29">SPEED FEED</tspan><tspan
           sodipodi:role="line"
           style="font-style:normal;font-variant:normal;font-weight:normal;font-stretch:normal;font-size:3.57187px;font-family:'Titillium Web';-inkscape-font-specification:'Titillium Web';stroke-width:0.16875;stroke-dasharray:none"
           x="80.454926"
           y="63.109627"
           id="tspan31">FORWARD</tspan></text>
      <text
         xml:space="preserve"
         style="font-style:normal;font-variant:normal;font-weight:normal;font-stretch:normal;font-size:3.57187px;font-family:'Titillium Web';-inkscape-font-specification:'Titillium Web';fill:#e3e3e3;stroke:#000000;stroke-width:0.169;stroke-dasharray:none;stroke-dashoffset:16.6299"
         x="152.32799"
         y="60.410492"
         id="text33"
         inkscape:label="currentSet"><tspan
           sodipodi:role="line"
           style="font-style:normal;font-variant:normal;font-weight:normal;font-stretch:normal;font-size:3.57187px;font-family:'Titillium Web';-inkscape-font-specification:'Titillium Web';stroke-width:0.169;stroke-dasharray:none"
           x="152.32799"
           y="60.410492"
           id="tspan33" /></text>
      <g
         inkscape:label="MIpeak"
         transform="translate(163.243, 37.6611)"
         id="g116">
        <g
           inkscape:label=""
           transform="translate(21.2653, 23.1417)"
           id="g89">
          <g
             inkscape:label=""
             transform="matrix(1.2341041,0,0,1.2341041,-37.616728,-3.8453099)"
             id="g115">
            <g
               fill="#000000"
               fill-opacity="1"
               id="g14"
               transform="matrix(0.352778,0,0,0.352778,-1.12448,-0.625255)">
              <g
                 id="use13"
                 transform="translate(13.151,8.4130001)">
                <path
                   d="m 2.9375,-6.375 c 0,-0.25 0,-0.265625 -0.234375,-0.265625 C 2.078125,-6 1.203125,-6 0.890625,-6 v 0.3125 c 0.203125,0 0.78125,0 1.296875,-0.265625 v 5.171875 c 0,0.359375 -0.03125,0.46875 -0.921875,0.46875 h -0.3125 V 0 c 0.34375,-0.03125 1.203125,-0.03125 1.609375,-0.03125 0.390625,0 1.265625,0 1.609375,0.03125 v -0.3125 h -0.3125 c -0.90625,0 -0.921875,-0.109375 -0.921875,-0.46875 z m 0,0"
                   id="path25" />
              </g>
            </g>
            <path
               fill="none"
               stroke-width="0.398"
               stroke-linecap="butt"
               stroke-linejoin="miter"
               stroke="#000000"
               stroke-opacity="1"
               stroke-miterlimit="10"
               d="M 0,10.887781 H 24.90625"
               id="path14"
               transform="scale(0.352778)" />
            <g
               fill="#000000"
               fill-opacity="1"
               id="g18"
               transform="matrix(0.352778,0,0,0.352778,-1.12448,-0.625255)">
              <g
                 id="use14"
                 transform="translate(3.188,21.986)">
                <path
                   d="m 2.890625,-3.515625 c 0.8125,-0.265625 1.390625,-0.953125 1.390625,-1.75 0,-0.8125 -0.875,-1.375 -1.828125,-1.375 -1,0 -1.765625,0.59375 -1.765625,1.359375 0,0.328125 0.21875,0.515625 0.515625,0.515625 0.296875,0 0.5,-0.21875 0.5,-0.515625 0,-0.484375 -0.46875,-0.484375 -0.609375,-0.484375 0.296875,-0.5 0.953125,-0.625 1.3125,-0.625 0.421875,0 0.96875,0.21875 0.96875,1.109375 0,0.125 -0.03125,0.703125 -0.28125,1.140625 C 2.796875,-3.65625 2.453125,-3.625 2.203125,-3.625 2.125,-3.609375 1.890625,-3.59375 1.8125,-3.59375 c -0.078125,0.015625 -0.140625,0.03125 -0.140625,0.125 0,0.109375 0.0625,0.109375 0.234375,0.109375 h 0.4375 c 0.8125,0 1.1875,0.671875 1.1875,1.65625 0,1.359375 -0.6875,1.640625 -1.125,1.640625 -0.4375,0 -1.1875,-0.171875 -1.53125,-0.75 0.34375,0.046875 0.65625,-0.171875 0.65625,-0.546875 0,-0.359375 -0.265625,-0.5625 -0.546875,-0.5625 -0.25,0 -0.5625,0.140625 -0.5625,0.578125 0,0.90625 0.921875,1.5625 2.015625,1.5625 1.21875,0 2.125,-0.90625 2.125,-1.921875 0,-0.8125 -0.640625,-1.59375 -1.671875,-1.8125 z m 0,0"
                   id="path26" />
              </g>
              <g
                 id="use15"
                 transform="translate(8.1693001,21.986)">
                <path
                   d="m 1.265625,-0.765625 1.0625,-1.03125 c 1.546875,-1.375 2.140625,-1.90625 2.140625,-2.90625 0,-1.140625 -0.890625,-1.9375 -2.109375,-1.9375 -1.125,0 -1.859375,0.921875 -1.859375,1.8125 0,0.546875 0.5,0.546875 0.53125,0.546875 0.171875,0 0.515625,-0.109375 0.515625,-0.53125 0,-0.25 -0.1875,-0.515625 -0.53125,-0.515625 -0.078125,0 -0.09375,0 -0.125,0.015625 0.21875,-0.65625 0.765625,-1.015625 1.34375,-1.015625 0.90625,0 1.328125,0.8125 1.328125,1.625 C 3.5625,-3.90625 3.078125,-3.125 2.515625,-2.5 l -1.90625,2.125 C 0.5,-0.265625 0.5,-0.234375 0.5,0 H 4.203125 L 4.46875,-1.734375 H 4.234375 C 4.171875,-1.4375 4.109375,-1 4,-0.84375 3.9375,-0.765625 3.28125,-0.765625 3.0625,-0.765625 Z m 0,0"
                   id="path27" />
              </g>
              <g
                 id="use16"
                 transform="translate(13.1506,21.986)">
                <path
                   d="m 4.75,-6.078125 c 0.078125,-0.109375 0.078125,-0.125 0.078125,-0.34375 H 2.40625 c -1.203125,0 -1.234375,-0.125 -1.265625,-0.3125 h -0.25 L 0.5625,-4.6875 h 0.25 c 0.03125,-0.15625 0.109375,-0.78125 0.25,-0.90625 0.0625,-0.0625 0.84375,-0.0625 0.96875,-0.0625 h 2.0625 C 3.984375,-5.5 3.203125,-4.40625 2.984375,-4.078125 2.078125,-2.734375 1.75,-1.34375 1.75,-0.328125 c 0,0.09375 0,0.546875 0.46875,0.546875 0.453125,0 0.453125,-0.453125 0.453125,-0.546875 V -0.84375 c 0,-0.546875 0.03125,-1.09375 0.109375,-1.625 0.046875,-0.234375 0.171875,-1.09375 0.625,-1.703125 z m 0,0"
                   id="path28" />
              </g>
              <g
                 id="use17"
                 transform="translate(18.131901,21.986)">
                <path
                   d="m 1.3125,-3.265625 v -0.25 c 0,-2.515625 1.234375,-2.875 1.75,-2.875 0.234375,0 0.65625,0.0625 0.875,0.40625 -0.15625,0 -0.546875,0 -0.546875,0.4375 0,0.3125 0.234375,0.46875 0.453125,0.46875 0.15625,0 0.46875,-0.09375 0.46875,-0.484375 0,-0.59375 -0.4375,-1.078125 -1.265625,-1.078125 -1.28125,0 -2.625,1.28125 -2.625,3.484375 0,2.671875 1.15625,3.375 2.078125,3.375 1.109375,0 2.0625,-0.9375 2.0625,-2.25 0,-1.265625 -0.890625,-2.21875 -2,-2.21875 -0.671875,0 -1.046875,0.5 -1.25,0.984375 z M 2.5,-0.0625 c -0.625,0 -0.921875,-0.59375 -0.984375,-0.75 -0.1875,-0.46875 -0.1875,-1.265625 -0.1875,-1.4375 0,-0.78125 0.328125,-1.78125 1.21875,-1.78125 0.171875,0 0.625,0 0.9375,0.625 0.171875,0.359375 0.171875,0.875 0.171875,1.359375 0,0.484375 0,0.984375 -0.171875,1.34375 C 3.1875,-0.109375 2.734375,-0.0625 2.5,-0.0625 Z m 0,0"
                   id="path29" />
              </g>
              <g
                 id="use18"
                 transform="translate(23.113199,21.986)">
                <path
                   d="m 1.625,-4.5625 c -0.453125,-0.296875 -0.5,-0.625 -0.5,-0.796875 0,-0.609375 0.65625,-1.03125 1.359375,-1.03125 0.71875,0 1.359375,0.515625 1.359375,1.234375 0,0.578125 -0.390625,1.046875 -0.984375,1.390625 z m 1.453125,0.953125 C 3.796875,-3.984375 4.28125,-4.5 4.28125,-5.15625 c 0,-0.921875 -0.875,-1.484375 -1.78125,-1.484375 -1,0 -1.8125,0.734375 -1.8125,1.671875 0,0.171875 0.015625,0.625 0.4375,1.09375 0.109375,0.109375 0.484375,0.359375 0.734375,0.53125 C 1.28125,-3.046875 0.421875,-2.5 0.421875,-1.5 c 0,1.046875 1.015625,1.71875 2.0625,1.71875 1.125,0 2.078125,-0.828125 2.078125,-1.890625 0,-0.359375 -0.109375,-0.8125 -0.5,-1.234375 C 3.875,-3.109375 3.71875,-3.203125 3.078125,-3.609375 Z m -1,0.421875 1.234375,0.78125 c 0.28125,0.1875 0.75,0.484375 0.75,1.09375 0,0.734375 -0.75,1.25 -1.5625,1.25 -0.859375,0 -1.578125,-0.609375 -1.578125,-1.4375 0,-0.578125 0.3125,-1.21875 1.15625,-1.6875 z m 0,0"
                   id="path30" />
              </g>
            </g>
            <g
               fill="#000000"
               fill-opacity="1"
               id="g19"
               transform="matrix(0.352778,0,0,0.352778,-1.12448,-0.625255)">
              <g
                 id="use19"
                 transform="translate(31.504,15.153)">
                <path
                   d="m 1.90625,-2.5 c 0,-0.28125 -0.234375,-0.515625 -0.515625,-0.515625 -0.296875,0 -0.53125,0.234375 -0.53125,0.515625 0,0.296875 0.234375,0.53125 0.53125,0.53125 0.28125,0 0.515625,-0.234375 0.515625,-0.53125 z m 0,0"
                   id="path31" />
              </g>
            </g>
            <g
               fill="#000000"
               fill-opacity="1"
               id="g20"
               transform="matrix(0.352778,0,0,0.352778,-1.12448,-0.625255)">
              <g
                 id="use20"
                 transform="translate(36.485001,15.153)">
                <path
                   d="M 9.234375,-6.046875 C 9.328125,-6.40625 9.34375,-6.5 10.09375,-6.5 c 0.21875,0 0.3125,0 0.3125,-0.203125 0,-0.109375 -0.09375,-0.109375 -0.265625,-0.109375 h -1.3125 c -0.265625,0 -0.28125,0 -0.390625,0.1875 L 4.796875,-0.9375 4.015625,-6.578125 C 3.984375,-6.8125 3.96875,-6.8125 3.703125,-6.8125 H 2.34375 c -0.1875,0 -0.296875,0 -0.296875,0.1875 0,0.125 0.09375,0.125 0.28125,0.125 0.140625,0 0.3125,0.015625 0.4375,0.015625 0.15625,0.03125 0.21875,0.046875 0.21875,0.171875 0,0.03125 -0.015625,0.0625 -0.046875,0.1875 l -1.265625,5.0625 c -0.09375,0.40625 -0.265625,0.71875 -1.078125,0.75 -0.046875,0 -0.171875,0.015625 -0.171875,0.1875 0,0.09375 0.0625,0.125 0.140625,0.125 0.3125,0 0.65625,-0.03125 1,-0.03125 C 1.890625,-0.03125 2.25,0 2.578125,0 c 0.046875,0 0.1875,0 0.1875,-0.203125 0,-0.109375 -0.109375,-0.109375 -0.1875,-0.109375 -0.5625,0 -0.671875,-0.203125 -0.671875,-0.4375 0,-0.0625 0,-0.125 0.03125,-0.234375 L 3.296875,-6.40625 H 3.3125 l 0.859375,6.171875 C 4.1875,-0.109375 4.203125,0 4.3125,0 4.421875,0 4.484375,-0.109375 4.53125,-0.171875 l 4.03125,-6.3125 h 0.015625 l -1.4375,5.703125 c -0.09375,0.390625 -0.109375,0.46875 -0.90625,0.46875 -0.15625,0 -0.265625,0 -0.265625,0.1875 C 5.96875,0 6.078125,0 6.109375,0 6.390625,0 7.0625,-0.03125 7.34375,-0.03125 7.75,-0.03125 8.1875,0 8.59375,0 8.65625,0 8.78125,0 8.78125,-0.203125 8.78125,-0.3125 8.6875,-0.3125 8.5,-0.3125 c -0.359375,0 -0.640625,0 -0.640625,-0.171875 0,-0.046875 0,-0.0625 0.046875,-0.25 z m 0,0"
                   id="path32" />
              </g>
            </g>
            <g
               fill="#000000"
               fill-opacity="1"
               id="g21"
               transform="matrix(0.352778,0,0,0.352778,-1.12448,-0.625255)">
              <g
                 id="use21"
                 transform="translate(47.235641,15.153)">
                <path
                   d="M 3.734375,-6.046875 C 3.8125,-6.40625 3.84375,-6.5 4.640625,-6.5 c 0.234375,0 0.3125,0 0.3125,-0.1875 0,-0.125 -0.109375,-0.125 -0.140625,-0.125 -0.296875,0 -1.03125,0.03125 -1.328125,0.03125 -0.296875,0 -1.015625,-0.03125 -1.328125,-0.03125 -0.0625,0 -0.1875,0 -0.1875,0.203125 C 1.96875,-6.5 2.046875,-6.5 2.25,-6.5 c 0.40625,0 0.6875,0 0.6875,0.1875 0,0.046875 0,0.078125 -0.03125,0.15625 l -1.34375,5.375 c -0.09375,0.375 -0.109375,0.46875 -0.90625,0.46875 -0.234375,0 -0.3125,0 -0.3125,0.203125 C 0.34375,0 0.453125,0 0.484375,0 0.78125,0 1.5,-0.03125 1.796875,-0.03125 2.09375,-0.03125 2.828125,0 3.125,0 c 0.078125,0 0.203125,0 0.203125,-0.1875 0,-0.125 -0.078125,-0.125 -0.296875,-0.125 -0.1875,0 -0.234375,0 -0.421875,-0.015625 -0.21875,-0.015625 -0.25,-0.0625 -0.25,-0.171875 0,-0.078125 0.015625,-0.15625 0.03125,-0.234375 z m 0,0"
                   id="path33" />
              </g>
            </g>
            <g
               fill="#000000"
               fill-opacity="1"
               id="g22"
               transform="matrix(0.352778,0,0,0.352778,-1.12448,-0.625255)">
              <g
                 id="use22"
                 transform="translate(51.616001,16.646999)">
                <path
                   d="m 1.9375,1.09375 c -0.453125,0 -0.515625,0 -0.515625,-0.296875 v -1.125 C 1.453125,-0.296875 1.78125,0.0625 2.359375,0.0625 3.28125,0.0625 4.0625,-0.625 4.0625,-1.5 c 0,-0.859375 -0.703125,-1.578125 -1.59375,-1.578125 -0.390625,0 -0.796875,0.15625 -1.078125,0.4375 v -0.4375 L 0.34375,-3 v 0.25 c 0.484375,0 0.515625,0.046875 0.515625,0.328125 v 3.21875 c 0,0.296875 -0.0625,0.296875 -0.515625,0.296875 v 0.265625 c 0.015625,0 0.5,-0.03125 0.796875,-0.03125 0.25,0 0.734375,0.015625 0.796875,0.03125 z M 1.421875,-2.328125 C 1.625,-2.671875 2.03125,-2.84375 2.390625,-2.84375 c 0.59375,0 1.046875,0.609375 1.046875,1.34375 0,0.796875 -0.53125,1.375 -1.109375,1.375 -0.625,0 -0.890625,-0.53125 -0.90625,-0.578125 z m 0,0"
                   id="path34" />
              </g>
            </g>
            <g
               fill="#000000"
               fill-opacity="1"
               id="g25"
               transform="matrix(0.352778,0,0,0.352778,-1.12448,-0.625255)">
              <g
                 id="use23"
                 transform="translate(56.232655,16.646999)">
                <path
                   d="m 3.0625,-1.59375 c 0.15625,0 0.203125,0 0.203125,-0.140625 0,-0.625 -0.34375,-1.375 -1.390625,-1.375 -0.90625,0 -1.609375,0.71875 -1.609375,1.578125 0,0.890625 0.78125,1.59375 1.703125,1.59375 0.9375,0 1.296875,-0.75 1.296875,-0.90625 0,-0.015625 -0.015625,-0.09375 -0.125,-0.09375 -0.09375,0 -0.109375,0.046875 -0.125,0.109375 -0.21875,0.5625 -0.75,0.671875 -1,0.671875 C 1.6875,-0.15625 1.375,-0.296875 1.171875,-0.5625 0.90625,-0.890625 0.90625,-1.3125 0.90625,-1.59375 Z M 0.90625,-1.765625 C 0.984375,-2.75 1.609375,-2.90625 1.875,-2.90625 c 0.859375,0 0.890625,0.96875 0.90625,1.140625 z m 0,0"
                   id="path35" />
              </g>
              <g
                 id="use24"
                 transform="translate(59.774651,16.646999)">
                <path
                   d="m 3.109375,-1.875 c 0,-0.359375 0,-0.625 -0.328125,-0.890625 C 2.5,-3 2.171875,-3.109375 1.75,-3.109375 c -0.65625,0 -1.125,0.25 -1.125,0.671875 0,0.234375 0.15625,0.34375 0.34375,0.34375 0.1875,0 0.328125,-0.140625 0.328125,-0.328125 0,-0.109375 -0.0625,-0.265625 -0.25,-0.3125 0.25,-0.171875 0.65625,-0.171875 0.6875,-0.171875 0.390625,0 0.828125,0.25 0.828125,0.84375 v 0.203125 C 2.171875,-1.84375 1.71875,-1.8125 1.203125,-1.625 c -0.625,0.21875 -0.8125,0.609375 -0.8125,0.921875 0,0.59375 0.71875,0.765625 1.21875,0.765625 0.546875,0 0.875,-0.3125 1.03125,-0.578125 0.015625,0.28125 0.203125,0.546875 0.53125,0.546875 0.015625,0 0.6875,0 0.6875,-0.65625 V -1.015625 H 3.625 v 0.375 c 0,0.078125 0,0.40625 -0.265625,0.40625 -0.25,0 -0.25,-0.328125 -0.25,-0.40625 z M 2.5625,-0.984375 c 0,0.671875 -0.59375,0.859375 -0.90625,0.859375 -0.359375,0 -0.6875,-0.234375 -0.6875,-0.578125 0,-0.390625 0.328125,-0.921875 1.59375,-0.96875 z m 0,0"
                   id="path36" />
              </g>
              <g
                 id="use25"
                 transform="translate(63.746227,16.646999)">
                <path
                   d="M 2.25,-1.890625 C 3.109375,-2.546875 3.34375,-2.734375 3.8125,-2.75 V -3 C 3.671875,-2.984375 3.484375,-2.96875 3.34375,-2.96875 3.0625,-2.96875 2.78125,-2.984375 2.515625,-3 v 0.25 c 0.078125,0.015625 0.125,0.0625 0.125,0.125 0,0.109375 -0.140625,0.234375 -0.21875,0.296875 l -1.03125,0.796875 v -3.3125 L 0.34375,-4.765625 v 0.25 c 0.46875,0 0.515625,0.0625 0.515625,0.390625 v 3.578125 C 0.859375,-0.25 0.796875,-0.25 0.34375,-0.25 V 0 c 0.25,-0.015625 0.515625,-0.03125 0.765625,-0.03125 C 1.375,-0.03125 1.625,-0.015625 1.890625,0 v -0.25 c -0.453125,0 -0.53125,0 -0.53125,-0.296875 V -1.21875 L 1.875,-1.609375 2.625,-0.65625 c 0.078125,0.078125 0.15625,0.1875 0.15625,0.28125 0,0.109375 -0.125,0.125 -0.1875,0.125 V 0 C 2.6875,0 3.171875,-0.03125 3.375,-0.03125 c 0.203125,0 0.40625,0.015625 0.609375,0.03125 v -0.25 c -0.25,0 -0.40625,-0.015625 -0.609375,-0.265625 z m 0,0"
                   id="path37" />
              </g>
            </g>
          </g>
        </g>
      </g>
      <text
         xml:space="preserve"
         style="font-style:normal;font-variant:normal;font-weight:normal;font-stretch:normal;font-size:3.57187px;font-family:'Titillium Web';-inkscape-font-specification:'Titillium Web';fill:#e3e3e3;stroke:#000000;stroke-width:0.16875;stroke-dasharray:none;stroke-dashoffset:16.6299"
         x="190.73131"
         y="94.274673"
         id="text117"
         inkscape:label="SPEED"><tspan
           sodipodi:role="line"
           style="font-style:normal;font-variant:normal;font-weight:normal;font-stretch:normal;font-size:3.57187px;font-family:'Titillium Web';-inkscape-font-specification:'Titillium Web';stroke-width:0.16875;stroke-dasharray:none"
           x="190.73131"
           y="94.274673"
           id="tspan117">SPEED</tspan></text>
    </g>
    <g
       inkscape:groupmode="layer"
       id="layer8"
       inkscape:label="desc">
      <text
         xml:space="preserve"
         style="font-style:normal;font-variant:normal;font-weight:normal;font-stretch:normal;font-size:1.93477px;font-family:'Titillium Web';-inkscape-font-specification:'Titillium Web';fill:#e3e3e3;stroke:#000000;stroke-width:0.16875;stroke-dasharray:none;stroke-dashoffset:16.6299"
         x="7.3629913"
         y="19.392933"
         id="text4"
         inkscape:label="PG-Acc,Dec.."><tspan
           sodipodi:role="line"
           id="tspan4"
           style="font-size:1.93477px;stroke-width:0.16875;stroke-dasharray:none"
           x="7.3629913"
           y="19.392933">Acc, Dec, DPos, PosSpeed, Speed, Mode</tspan></text>
      <text
         xml:space="preserve"
         style="font-style:normal;font-variant:normal;font-weight:normal;font-stretch:normal;font-size:1.93477px;font-family:'Titillium Web';-inkscape-font-specification:'Titillium Web';fill:#e3e3e3;stroke:#000000;stroke-width:0.16875;stroke-dasharray:none;stroke-dashoffset:16.6299"
         x="67.099968"
         y="20.277454"
         id="text4-2"
         inkscape:label="P-K,..."><tspan
           sodipodi:role="line"
           id="tspan4-6"
           style="font-size:1.93477px;stroke-width:0.16875;stroke-dasharray:none"
           x="67.099968"
           y="20.277454">P-K, ... - position controller gain</tspan></text>
      <text
         xml:space="preserve"
         style="font-style:normal;font-variant:normal;font-weight:normal;font-stretch:normal;font-size:1.93477px;font-family:'Titillium Web';-inkscape-font-specification:'Titillium Web';fill:#e3e3e3;stroke:#000000;stroke-width:0.16875;stroke-dasharray:none;stroke-dashoffset:16.6299"
         x="146.93013"
         y="20.277454"
         id="text13"
         inkscape:label="V-K,..."><tspan
           sodipodi:role="line"
           id="tspan13"
           style="font-size:1.93477px;stroke-width:0.16875;stroke-dasharray:none"
           x="146.93013"
           y="20.277454">V-K, V-T, ...</tspan></text>
      <text
         xml:space="preserve"
         style="font-style:normal;font-variant:normal;font-weight:normal;font-stretch:normal;font-size:1.93477px;font-family:'Titillium Web';-inkscape-font-specification:'Titillium Web';fill:#e3e3e3;stroke:#000000;stroke-width:0.16875;stroke-dasharray:none;stroke-dashoffset:16.6299"
         x="231.65341"
         y="20.277454"
         id="text19"
         inkscape:label="C-K,..."><tspan
           sodipodi:role="line"
           id="tspan19"
           style="font-size:1.93477px;stroke-width:0.16875;stroke-dasharray:none"
           x="231.65341"
           y="20.277454">C-K, C-T, ...</tspan></text>
      <text
         xml:space="preserve"
         style="font-style:normal;font-variant:normal;font-weight:normal;font-stretch:normal;font-size:1.93477px;font-family:'Titillium Web';-inkscape-font-specification:'Titillium Web';white-space:pre;inline-size:0;fill:#e3e3e3;stroke:#000000;stroke-width:0.16875;stroke-dasharray:none;stroke-dashoffset:16.6299"
         x="80.591003"
         y="67.144936"
         id="text30"
         inkscape:label="V-K,..."><tspan
           id="tspan30"
           style="font-size:1.93477px;stroke-width:0.16875;stroke-dasharray:none"
           x="80.591003"
           y="67.144936">P-SFF</tspan></text>
    </g>
  </g>
  <g
     id="layer4"
     inkscape:label="switches"
     inkscape:highlight-color="#4850eb"
     inkscape:groupmode="layer" />
</svg>
